<mxfile host="Electron" agent="Mozilla/5.0 (X11; Linux x86_64) AppleWebKit/537.36 (KHTML, like Gecko) draw.io/26.0.4 Chrome/128.0.6613.186 Electron/32.2.5 Safari/537.36" version="26.0.4">
  <diagram name="Page-1" id="VAMbbI06iVgarpAcoKAx">
    <mxGraphModel dx="1114" dy="1198" grid="1" gridSize="10" guides="1" tooltips="1" connect="1" arrows="1" fold="1" page="1" pageScale="1" pageWidth="850" pageHeight="1100" math="0" shadow="0">
      <root>
        <mxCell id="0" />
        <mxCell id="1" parent="0" />
        <mxCell id="hEkdTbpnU1xutKKc0BeM-1" value="" style="sketch=0;points=[[0,0,0],[0.25,0,0],[0.5,0,0],[0.75,0,0],[1,0,0],[0,1,0],[0.25,1,0],[0.5,1,0],[0.75,1,0],[1,1,0],[0,0.25,0],[0,0.5,0],[0,0.75,0],[1,0.25,0],[1,0.5,0],[1,0.75,0]];outlineConnect=0;fontColor=#232F3E;fillColor=#8C4FFF;strokeColor=#ffffff;dashed=0;verticalLabelPosition=bottom;verticalAlign=top;align=center;html=1;fontSize=12;fontStyle=0;aspect=fixed;shape=mxgraph.aws4.resourceIcon;resIcon=mxgraph.aws4.redshift;" vertex="1" parent="1">
          <mxGeometry x="270" y="500" width="78" height="78" as="geometry" />
        </mxCell>
        <mxCell id="hEkdTbpnU1xutKKc0BeM-2" value="Amazon Redshift Cluster" style="rounded=0;whiteSpace=wrap;html=1;fillColor=none;strokeColor=#8C4FFF;dashed=1;verticalAlign=top;fontColor=#8C4FFF;fontStyle=1;fontSize=12;" vertex="1" parent="1">
          <mxGeometry x="270" y="500" width="310" height="230" as="geometry" />
        </mxCell>
        <mxCell id="hEkdTbpnU1xutKKc0BeM-5" value="Node 1" style="rounded=0;whiteSpace=wrap;html=1;fillColor=none;strokeColor=#8C4FFF;verticalAlign=middle;fontColor=#8C4FFF;fontStyle=1;fontSize=12;align=center;" vertex="1" parent="1">
          <mxGeometry x="290" y="680" width="70" height="30" as="geometry" />
        </mxCell>
        <mxCell id="hEkdTbpnU1xutKKc0BeM-6" value="Node 2" style="rounded=0;whiteSpace=wrap;html=1;fillColor=none;strokeColor=#8C4FFF;verticalAlign=middle;fontColor=#8C4FFF;fontStyle=1;fontSize=12;align=center;" vertex="1" parent="1">
          <mxGeometry x="390" y="680" width="70" height="30" as="geometry" />
        </mxCell>
        <mxCell id="hEkdTbpnU1xutKKc0BeM-7" value="Node 3" style="rounded=0;whiteSpace=wrap;html=1;fillColor=none;strokeColor=#8C4FFF;verticalAlign=middle;fontColor=#8C4FFF;fontStyle=1;fontSize=12;align=center;" vertex="1" parent="1">
          <mxGeometry x="490" y="680" width="70" height="30" as="geometry" />
        </mxCell>
        <mxCell id="hEkdTbpnU1xutKKc0BeM-10" style="edgeStyle=orthogonalEdgeStyle;rounded=0;orthogonalLoop=1;jettySize=auto;html=1;exitX=0;exitY=0.5;exitDx=0;exitDy=0;" edge="1" parent="1" source="hEkdTbpnU1xutKKc0BeM-8" target="hEkdTbpnU1xutKKc0BeM-5">
          <mxGeometry relative="1" as="geometry" />
        </mxCell>
        <mxCell id="hEkdTbpnU1xutKKc0BeM-11" style="edgeStyle=orthogonalEdgeStyle;rounded=0;orthogonalLoop=1;jettySize=auto;html=1;exitX=1;exitY=0.5;exitDx=0;exitDy=0;" edge="1" parent="1" source="hEkdTbpnU1xutKKc0BeM-8" target="hEkdTbpnU1xutKKc0BeM-7">
          <mxGeometry relative="1" as="geometry" />
        </mxCell>
        <mxCell id="hEkdTbpnU1xutKKc0BeM-12" style="edgeStyle=orthogonalEdgeStyle;rounded=0;orthogonalLoop=1;jettySize=auto;html=1;exitX=0.5;exitY=1;exitDx=0;exitDy=0;" edge="1" parent="1" source="hEkdTbpnU1xutKKc0BeM-8" target="hEkdTbpnU1xutKKc0BeM-6">
          <mxGeometry relative="1" as="geometry" />
        </mxCell>
        <mxCell id="hEkdTbpnU1xutKKc0BeM-8" value="Leader Node" style="rounded=0;whiteSpace=wrap;html=1;fillColor=none;strokeColor=#8C4FFF;verticalAlign=middle;fontColor=#8C4FFF;fontStyle=1;fontSize=12;align=center;" vertex="1" parent="1">
          <mxGeometry x="365" y="590" width="120" height="40" as="geometry" />
        </mxCell>
        <mxCell id="hEkdTbpnU1xutKKc0BeM-15" value="JDBC / ODBC" style="edgeStyle=orthogonalEdgeStyle;rounded=0;orthogonalLoop=1;jettySize=auto;html=1;" edge="1" parent="1" source="hEkdTbpnU1xutKKc0BeM-14" target="hEkdTbpnU1xutKKc0BeM-2">
          <mxGeometry relative="1" as="geometry" />
        </mxCell>
        <mxCell id="hEkdTbpnU1xutKKc0BeM-14" value="&lt;h1 style=&quot;margin-top: 0px;&quot;&gt;Query&lt;/h1&gt;&lt;p&gt;SELECT count(*), ...&lt;/p&gt;&lt;p&gt;FROM my_table&lt;/p&gt;&lt;p&gt;GROUP BY ...&lt;/p&gt;" style="text;html=1;whiteSpace=wrap;overflow=hidden;rounded=0;" vertex="1" parent="1">
          <mxGeometry x="335" y="310" width="180" height="120" as="geometry" />
        </mxCell>
      </root>
    </mxGraphModel>
  </diagram>
</mxfile>
